<svg id="Standard_icons" data-name="Standard icons" xmlns="http://www.w3.org/2000/svg" width="64" height="64" viewBox="0 0 64 64">
  <defs>
    <style>
      .cls-1 {
        fill: #1d1d1b;
      }
    </style>
  </defs>
  <title>Icon_Walking</title>
  <g id="Walking_pedestrian_access_access" data-name="Walking; pedestrian access; access">
    <path class="cls-1" d="M35.5,0A5.5,5.5,0,1,1,30,5.5,5.5,5.5,0,0,1,35.5,0"/>
    <path class="cls-1" d="M50.74,32.19a2.39,2.39,0,0,1-3.21,1L41.11,30a7.46,7.46,0,0,1-3.43-3.66L36.6,24.15,34.19,34.71,49,58.17a3.78,3.78,0,1,1-6.38,4L29.33,41.14c-.39,1.77-.82,3.46-1.11,5.18A16.07,16.07,0,0,1,26,52.14L20,62.15a3.78,3.78,0,1,1-6.49-3.86l5.57-9.38A16.69,16.69,0,0,0,21,44.07l4.88-21.72-3.06,2.49A2.44,2.44,0,0,0,22,26.19l-1.8,8a2.39,2.39,0,1,1-4.67-1l2-8.86a6.13,6.13,0,0,1,2.13-3.43l9.28-7.5a5.42,5.42,0,0,1,8.58,1.85l5.12,10.15,7,3.6a2.39,2.39,0,0,1,1,3.22"/>
  </g>
</svg>
