<svg id="Standard_icons" data-name="Standard icons" xmlns="http://www.w3.org/2000/svg" width="64" height="64" viewBox="0 0 64 64">
  <defs>
    <style>
      .cls-1 {
        fill: #1d1d1b;
      }
    </style>
  </defs>
  <title>Icon_Sports field</title>
  <g id="Sports_field_playing_field" data-name="Sports field; playing field">
    <path class="cls-1" d="M53.24,27.74l-8.73-1.66a1.19,1.19,0,0,1-.73-.83l-1.66-8.62A6.17,6.17,0,0,0,35.79,12a11.16,11.16,0,0,0-2.49.31q-8.42,3-16.21,6.14a1.91,1.91,0,0,0-.62,2.59L22.8,36.36,20.21,44a1.05,1.05,0,0,1-1.35.73L7,43.11a2.26,2.26,0,0,0-2.18.73A3.21,3.21,0,0,0,4,46a2.29,2.29,0,0,0,2.08,2.6L21.56,51a2.25,2.25,0,0,0,2.8-1.56l3.43-10,8.83,7.18-3,14.44a1.87,1.87,0,0,0,.78,2.08,3.94,3.94,0,0,0,2.44.83,2.21,2.21,0,0,0,2.49-1.66l3.22-15.48a9.34,9.34,0,0,0,.11-1.36A4,4,0,0,0,41,42.39L33.5,36.47l4.36-12.15L39.43,30a1.59,1.59,0,0,0,1.14.94L52.2,33.13a2,2,0,0,0,2-.72A3.32,3.32,0,0,0,55,30.23C55,28.78,54.41,28,53.24,27.74Zm-28.06,0L23,22.86a1.29,1.29,0,0,1,.21-1L27.79,20ZM43.37,1.58A5.18,5.18,0,0,1,45,5.45a5.37,5.37,0,0,1-1.63,3.92A5.4,5.4,0,0,1,39.46,11a5.2,5.2,0,0,1-3.86-1.63A5.43,5.43,0,0,1,34,5.45a5.24,5.24,0,0,1,1.59-3.87A5.22,5.22,0,0,1,39.46,0,5.42,5.42,0,0,1,43.37,1.58Z"/>
    <path class="cls-1" d="M54.51,62A5.5,5.5,0,1,1,60,56.51,5.51,5.51,0,0,1,54.51,62"/>
  </g>
</svg>
