<svg id="Standard_icons" data-name="Standard icons" xmlns="http://www.w3.org/2000/svg" width="64" height="64" viewBox="0 0 64 64">
  <defs>
    <style>
      .cls-1 {
        fill: #1d1d1b;
      }
    </style>
  </defs>
  <title>Icon_Toilets</title>
  <g id="Toilets">
    <path class="cls-1" d="M50.5,3A4.5,4.5,0,1,1,46,7.5,4.5,4.5,0,0,1,50.5,3"/>
    <path class="cls-1" d="M14.5,3A4.5,4.5,0,1,1,10,7.5,4.5,4.5,0,0,1,14.5,3"/>
    <path class="cls-1" d="M24.28,31.16,20.72,19.34H19.11L25,38.93a1,1,0,0,1-1,1L19,40V56.89a2,2,0,1,1-4,0V40H13V56.89a2,2,0,1,1-4,0V40H5c-1,0-1-1.07-1-1.07L9.8,19.35H8.27L4.73,31.21C3.88,33.8.3,32.74,1.12,30L5.05,17.08A5.94,5.94,0,0,1,10.59,13h7.77a6.15,6.15,0,0,1,5.58,4.07l4,12.87c.79,2.77-2.76,3.92-3.6,1.22"/>
    <path class="cls-1" d="M35,62.76a1.49,1.49,0,0,1-2.94,0V1.24a1.49,1.49,0,0,1,2.94,0Z"/>
    <path class="cls-1" d="M58,33V20H57V56c0,1.42-.82,3-2.32,3A3,3,0,0,1,52,56V35H50V56a2.92,2.92,0,0,1-2.59,3C45.91,59,45,57.42,45,56V20H44V33a2,2,0,1,1-4,0V19c0-3.3,1.76-6,5.2-6H56.7c3.78,0,5.3,3,5.3,6V33a2,2,0,1,1-4,0"/>
  </g>
</svg>
